#N canvas -8 -8 1920 1037 10;
#X obj 850 117 inlet~;
#X obj 897 115 inlet;
#X obj 849 410 *~;
#X obj 1006 418 *~;
#X obj 863 246 phasor~ 0;
#X obj 864 275 -~ 1;
#X obj 865 300 *~ -1;
#X obj 1020 325 lop~ 10;
#X obj 865 318 lop~ 10;
#X obj 849 432 outlet~;
#X obj 1007 438 outlet~;
#X obj 938 114 inlet;
#X obj 924 136 clip 0 1;
#X obj 865 339 *~;
#X obj 1021 343 *~;
#X obj 865 370 +~;
#X obj 1021 369 +~;
#X obj 924 170 - 1;
#X obj 924 190 abs;
#X obj 943 42 loadbang;
#X msg 941 77 0;
#X connect 0 0 2 0;
#X connect 0 0 3 0;
#X connect 1 0 4 0;
#X connect 2 0 9 0;
#X connect 3 0 10 0;
#X connect 4 0 5 0;
#X connect 4 0 7 0;
#X connect 5 0 6 0;
#X connect 6 0 8 0;
#X connect 7 0 14 0;
#X connect 8 0 13 0;
#X connect 11 0 12 0;
#X connect 12 0 13 1;
#X connect 12 0 14 1;
#X connect 12 0 17 0;
#X connect 13 0 15 0;
#X connect 14 0 16 0;
#X connect 15 0 2 1;
#X connect 16 0 3 1;
#X connect 17 0 18 0;
#X connect 18 0 15 1;
#X connect 18 0 16 1;
#X connect 19 0 20 0;
#X connect 20 0 12 0;
