#N canvas -8 -8 1920 1037 10;
#X obj 539 260 flanger~;
#X obj 555 367 pack f f f f;
#X floatatom 520 320 5 0 0 0 - - -;
#X floatatom 629 131 5 0 0 0 - - -;
#X floatatom 608 318 5 0 0 0 - - -;
#X floatatom 651 319 5 0 0 0 - - -;
#X floatatom 628 170 5 0 0 0 - - -;
#X obj 565 344 t b f;
#X obj 611 341 t b f;
#X obj 653 342 t b f;
#X obj 489 84 vsl 15 128 0 1 0 0 empty empty empty 0 -9 0 10 -262144
-1 -1 0 1;
#X obj 539 108 vsl 15 128 0 1 0 0 empty empty empty 0 -9 0 10 -262144
-1 -1 0 1;
#X obj 594 84 vsl 15 128 0 0.99 0 0 empty empty empty 0 -9 0 10 -262144
-1 -1 0 1;
#X text 450 64 Flanger Level;
#X text 516 89 Mod Level;
#X text 556 66 Feedback Level;
#X text 624 151 Tap Point;
#X text 612 112 Mod Freq;
#X floatatom 747 92 5 0 0 0 - - -;
#X text 788 92 Rate;
#X obj 747 69 tgl 15 0 empty empty empty 17 7 0 10 -262144 -1 -1 1
1;
#X obj 752 264 autopan~;
#X text 766 68 on/off;
#X obj 204 377 pack f f f f;
#X floatatom 169 330 5 0 0 0 - - -;
#X floatatom 341 108 5 0 0 0 - - -;
#X floatatom 257 328 5 0 0 0 - - -;
#X floatatom 300 329 5 0 0 0 - - -;
#X floatatom 340 147 5 0 0 0 - - -;
#X obj 214 354 t b f;
#X obj 260 351 t b f;
#X obj 302 352 t b f;
#X obj 198 84 vsl 15 128 0 1 0 0 empty empty empty 0 -9 0 10 -262144
-1 -1 0 1;
#X obj 248 108 vsl 15 128 0 1 0 0 empty empty empty 0 -9 0 10 -262144
-1 -1 0 1;
#X obj 303 84 vsl 15 128 0 0.99 0 0 empty empty empty 0 -9 0 10 -262144
-1 -1 0 1;
#X text 225 89 Mod Level;
#X text 265 66 Feedback Level;
#X text 324 89 Mod Freq;
#X text 170 64 Delay Level;
#X obj 227 264 freqdel2~;
#X text 336 128 Tap Point 1;
#X floatatom 340 188 5 0 0 0 - - -;
#X text 336 169 Tap Point 2;
#X obj 550 287 catch~ \$0-d-out;
#X obj 201 420 throw~ \$0-d-out;
#X obj 201 400 throw~ \$0-d-out;
#X obj 199 297 inlet~;
#X obj 753 316 catch~ \$0-f-out;
#X obj 552 390 throw~ \$0-f-out;
#X obj 552 410 throw~ \$0-f-out;
#X obj 766 381 outlet~;
#X obj 830 382 outlet~;
#X text 239 31 Delay;
#X text 518 27 Flanger;
#X text 733 27 Autopan;
#X connect 0 0 49 0;
#X connect 0 1 48 0;
#X connect 1 0 0 1;
#X connect 2 0 1 0;
#X connect 3 0 7 0;
#X connect 4 0 8 0;
#X connect 5 0 9 0;
#X connect 6 0 0 2;
#X connect 7 0 1 0;
#X connect 7 1 1 1;
#X connect 8 0 1 0;
#X connect 8 1 1 2;
#X connect 9 0 1 0;
#X connect 9 1 1 3;
#X connect 10 0 2 0;
#X connect 11 0 4 0;
#X connect 12 0 5 0;
#X connect 18 0 21 1;
#X connect 20 0 21 2;
#X connect 21 0 50 0;
#X connect 21 1 51 0;
#X connect 23 0 39 1;
#X connect 24 0 23 0;
#X connect 25 0 29 0;
#X connect 26 0 30 0;
#X connect 27 0 31 0;
#X connect 28 0 39 2;
#X connect 29 0 23 0;
#X connect 29 1 23 1;
#X connect 30 0 23 0;
#X connect 30 1 23 2;
#X connect 31 0 23 0;
#X connect 31 1 23 3;
#X connect 32 0 24 0;
#X connect 33 0 26 0;
#X connect 34 0 27 0;
#X connect 39 0 44 0;
#X connect 39 1 45 0;
#X connect 41 0 39 3;
#X connect 43 0 0 0;
#X connect 46 0 39 0;
#X connect 47 0 21 0;
#X coords 0 -1 1 1 680 230 1 155 15;
