#N canvas 1589 0 1596 1701 10;
#X obj 412 319 *~;
#X obj 383 363 +~;
#X obj 366 637 *~;
#X obj 457 464 *~;
#X obj 61 66 inlet~;
#X obj 412 290 osc~;
#X obj 366 579 r \$0-delaylevel;
#X obj 459 203 r \$0-modfreq;
#X obj 600 143 r \$0-modlevel;
#X obj 610 403 r \$0-feedbacklevel;
#X obj 129 704 outlet~;
#X obj 305 13 inlet;
#X obj 590 95 s \$0-feedbacklevel;
#X obj 498 95 s \$0-modlevel;
#X obj 413 97 s \$0-modfreq;
#X obj 201 94 s \$0-delaylevel;
#X obj 558 18 inlet;
#X obj 628 19 inlet;
#X obj 558 45 s \$0-tap1;
#X obj 632 47 s \$0-tap2;
#X obj 381 711 outlet~;
#X obj 762 712 outlet~;
#X obj 372 176 r \$0-tap1;
#X obj 795 320 *~;
#X obj 762 362 +~;
#X obj 793 270 osc~;
#X obj 761 402 delread4~ \$0-fdelay 100;
#X obj 764 187 r \$0-tap2;
#X obj 787 467 *~;
#X obj 454 549 s~ \$0-feedback1;
#X obj 788 535 s~ \$0-feedback2;
#X obj 175 223 r~ \$0-feedback2;
#X obj 152 171 r~ \$0-feedback1;
#X obj 747 608 r \$0-delaylevel;
#X obj 746 636 *~;
#X obj 307 35 unpack f f f f;
#X obj 139 323 delwrite~ \$0-fdelay 5000;
#X obj 383 401 delread4~ \$0-fdelay 100;
#X obj 136 217 +~;
#X obj 139 255 +~;
#X obj 407 264 lop~ 2;
#X obj 754 246 lop~ 2;
#X obj 598 181 lop~ 2;
#X obj 446 289 *~;
#X obj 831 270 *~;
#X obj 371 206 lop~ 2;
#X obj 760 212 lop~ 2;
#X obj 457 487 lop~ 10000;
#X obj 456 512 hip~ 100;
#X obj 787 488 lop~ 10000;
#X obj 786 513 hip~ 100;
#X obj 138 295 clip~ 0 0.9999;
#X connect 0 0 1 1;
#X connect 1 0 37 0;
#X connect 2 0 20 0;
#X connect 3 0 47 0;
#X connect 4 0 10 0;
#X connect 4 0 38 0;
#X connect 5 0 0 0;
#X connect 6 0 2 0;
#X connect 7 0 40 0;
#X connect 7 0 41 0;
#X connect 8 0 42 0;
#X connect 9 0 3 1;
#X connect 9 0 28 1;
#X connect 11 0 35 0;
#X connect 16 0 18 0;
#X connect 17 0 19 0;
#X connect 22 0 45 0;
#X connect 23 0 24 1;
#X connect 24 0 26 0;
#X connect 25 0 23 0;
#X connect 26 0 28 0;
#X connect 26 0 34 1;
#X connect 27 0 46 0;
#X connect 28 0 49 0;
#X connect 31 0 39 1;
#X connect 32 0 38 1;
#X connect 33 0 34 0;
#X connect 34 0 21 0;
#X connect 35 0 15 0;
#X connect 35 1 14 0;
#X connect 35 2 13 0;
#X connect 35 3 12 0;
#X connect 37 0 3 0;
#X connect 37 0 2 1;
#X connect 38 0 39 0;
#X connect 39 0 51 0;
#X connect 40 0 5 0;
#X connect 41 0 25 0;
#X connect 42 0 43 1;
#X connect 42 0 44 1;
#X connect 43 0 0 1;
#X connect 44 0 23 1;
#X connect 45 0 1 0;
#X connect 45 0 43 0;
#X connect 46 0 44 0;
#X connect 46 0 24 0;
#X connect 47 0 48 0;
#X connect 48 0 29 0;
#X connect 49 0 50 0;
#X connect 50 0 30 0;
#X connect 51 0 36 0;
