#N canvas 275 208 3200 1716 10;
#X obj 385 110 secondlevel~;
#X obj 396 14 notein;
#X obj 392 72 pack f f;
#X obj 387 842 output~;
#X obj 390 54 mtof;
#X obj 70 274 qlist;
#X obj 73 214 t b b;
#X obj 69 40 bng 15 250 50 0 empty empty empty 17 7 0 10 #fcfcfc #000000 #000000;
#X text 92 41 play;
#X obj 287 24 r chords;
#X obj 286 58 unpack f f;
#X msg 103 242 read spencerchords.txt;
#X obj 84 105 tgl 15 0 empty empty empty 17 7 0 10 #fcfcfc #000000 #000000 0 1;
#X obj 68 369 qlist;
#X obj 71 309 t b b;
#X msg 101 337 read spencerchords2.txt;
#X obj 488 35 unpack f f;
#X obj 489 17 r chords2;
#X obj 482 72 pack f f;
#X obj 485 55 mtof;
#X obj 86 140 metro 9800;
#X floatatom 301 118 5 0 0 0 - - - 0;
#X obj 69 474 qlist;
#X obj 72 414 t b b;
#X obj 1539 27 notein;
#X obj 1540 74 pack f f;
#X msg 102 442 read spencerkick.txt;
#X obj 1383 24 r kick;
#X floatatom 1598 49 5 0 0 0 - - - 0;
#X obj 275 474 bng 15 250 50 0 empty empty empty 17 7 0 10 #fcfcfc #000000 #000000;
#X obj 122 802 t b b f;
#X obj 106 847 timer;
#X floatatom 139 748 5 0 0 0 - - - 0;
#X obj 163 791 pack f f f;
#X obj 162 849 spigot;
#X obj 164 935 qlist;
#X obj 325 466 bng 15 250 50 0 empty empty empty 17 7 0 10 #fcfcfc #000000 #000000;
#X msg 322 495 0;
#X obj 199 765 t b b b;
#X msg 205 800 1;
#X msg 258 804 clear;
#X obj 106 764 unpack f f f;
#X obj 15 781 notein;
#X msg 163 45 stop;
#X msg 122 74 0;
#X obj 64 562 qlist;
#X obj 67 502 t b b;
#X obj 1427 25 r snap;
#X msg 97 530 read spencersnap.txt;
#X obj 56 655 qlist;
#X obj 59 595 t b b;
#X msg 89 623 read spencersnare.txt;
#X obj 1277 21 r snare;
#X obj 53 738 qlist;
#X obj 56 678 t b b;
#X msg 86 706 read spencerhats.txt;
#X obj 1332 22 r hats;
#X msg 351 923 write ./spencerkick.txt;
#X msg 161 889 add \$1 kick \$2 \$3;
#X obj 1285 42 spigot;
#X obj 1332 41 spigot;
#X obj 1384 47 spigot;
#X obj 1432 50 spigot;
#X obj 1242 24 tgl 15 0 empty empty empty 17 7 0 10 #fcfcfc #000000 #000000 0 1;
#X obj 588 8 minikey;
#X obj 592 76 unpack f f f;
#X connect 0 0 3 0;
#X connect 0 1 3 1;
#X connect 1 0 21 0;
#X connect 1 0 4 0;
#X connect 1 1 2 1;
#X connect 2 0 0 0;
#X connect 4 0 2 0;
#X connect 6 0 5 0;
#X connect 6 1 11 0;
#X connect 7 0 12 0;
#X connect 7 0 23 0;
#X connect 7 0 46 0;
#X connect 7 0 50 0;
#X connect 7 0 54 0;
#X connect 9 0 10 0;
#X connect 10 0 4 0;
#X connect 10 1 2 1;
#X connect 11 0 5 0;
#X connect 12 0 20 0;
#X connect 14 0 13 0;
#X connect 14 1 15 0;
#X connect 15 0 13 0;
#X connect 16 0 19 0;
#X connect 16 1 18 1;
#X connect 17 0 16 0;
#X connect 18 0 0 0;
#X connect 19 0 18 0;
#X connect 20 0 6 0;
#X connect 20 0 14 0;
#X connect 23 0 22 0;
#X connect 23 1 26 0;
#X connect 24 0 25 0;
#X connect 24 0 28 0;
#X connect 24 1 25 1;
#X connect 25 0 0 1;
#X connect 26 0 22 0;
#X connect 27 0 61 0;
#X connect 29 0 38 0;
#X connect 30 0 31 0;
#X connect 30 1 31 1;
#X connect 30 2 33 1;
#X connect 31 0 32 0;
#X connect 32 0 33 0;
#X connect 33 0 34 0;
#X connect 34 0 58 0;
#X connect 36 0 37 0;
#X connect 36 0 43 0;
#X connect 37 0 34 1;
#X connect 38 0 31 0;
#X connect 38 1 39 0;
#X connect 38 2 40 0;
#X connect 39 0 34 1;
#X connect 40 0 35 0;
#X connect 41 1 30 0;
#X connect 41 2 33 2;
#X connect 42 0 30 0;
#X connect 42 1 33 2;
#X connect 43 0 26 0;
#X connect 43 0 15 0;
#X connect 43 0 11 0;
#X connect 43 0 44 0;
#X connect 43 0 48 0;
#X connect 43 0 51 0;
#X connect 43 0 55 0;
#X connect 44 0 12 0;
#X connect 46 0 45 0;
#X connect 46 1 48 0;
#X connect 47 0 62 0;
#X connect 48 0 45 0;
#X connect 50 0 49 0;
#X connect 50 1 51 0;
#X connect 51 0 49 0;
#X connect 52 0 59 0;
#X connect 54 0 53 0;
#X connect 54 1 55 0;
#X connect 55 0 53 0;
#X connect 56 0 60 0;
#X connect 57 0 35 0;
#X connect 58 0 35 0;
#X connect 59 0 0 1;
#X connect 60 0 0 1;
#X connect 61 0 0 1;
#X connect 62 0 0 1;
#X connect 63 0 59 1;
#X connect 63 0 62 1;
#X connect 63 0 61 1;
#X connect 63 0 60 1;
#X connect 64 0 65 0;
#X connect 65 1 4 0;
#X connect 65 2 2 1;
