#N canvas 163 3 1920 1037 10;
#X obj 242 19 minikey;
#X obj 341 99 bng 15 250 50 0 empty empty empty 17 7 0 10 -262144 -1
-1;
#X obj 172 194 t b b f;
#X obj 156 239 timer;
#X floatatom 155 268 5 0 0 0 - - -;
#X obj 179 311 pack f f f;
#X obj 178 369 spigot;
#X obj 180 455 qlist;
#X obj 396 100 bng 15 250 50 0 empty empty empty 17 7 0 10 -262144
-1 -1;
#X msg 393 129 0;
#X obj 249 157 t b b b;
#X msg 255 192 1;
#X msg 308 196 clear;
#X obj 189 81 unpack f f f;
#X obj 56 108 notein;
#X msg 177 410 add \$1 snare \$2 \$3;
#X msg 365 443 write ./spencersnare.txt;
#X connect 0 0 13 0;
#X connect 1 0 10 0;
#X connect 2 0 3 0;
#X connect 2 1 3 1;
#X connect 2 2 5 1;
#X connect 3 0 4 0;
#X connect 4 0 5 0;
#X connect 5 0 6 0;
#X connect 6 0 15 0;
#X connect 8 0 9 0;
#X connect 9 0 6 1;
#X connect 10 0 3 0;
#X connect 10 1 11 0;
#X connect 10 2 12 0;
#X connect 11 0 6 1;
#X connect 12 0 7 0;
#X connect 13 1 2 0;
#X connect 13 2 5 2;
#X connect 14 0 2 0;
#X connect 14 1 5 2;
#X connect 15 0 7 0;
#X connect 16 0 7 0;
