#N canvas -8 -8 1920 1037 10;
#X msg 44 90 sinesum 8192 1 3 5 7 9 11 13 15 17 19 21 23;
#X msg 346 95 sinesum 8192 0.5 0.3333 0.25 0.2 0.16 0.14 0.12 0.09
;
#X obj 13 113 unpack f f f f f;
#X obj 13 35 loadbang;
#X obj 331 116 unpack f f f f f;
#X obj 327 42 loadbang;
#X obj 24 330 unpack f f f f f;
#X obj 24 252 loadbang;
#X obj 329 330 unpack f f f f f;
#X obj 329 252 loadbang;
#X msg 33 308 sinesum 8192 1;
#X msg 330 72 0 0 8192 0.2 84;
#X msg 14 64 0 1935 4579 0.5 18;
#X obj 1210 137 drummachine~;
#X obj 1217 536 throw~ \$0-drums;
#X obj 1395 535 throw~ \$0-drums;
#X obj 1580 529 throw~ \$0-drums;
#X obj 1762 528 throw~ \$0-drums;
#X obj 711 563 effectsboard~;
#X obj 1208 263 effectsboard~;
#X obj 1759 556 catch~ \$0-drums~;
#X obj 1667 745 spacial~;
#X obj 711 814 throw~ \$0-leftout;
#X obj 1205 504 throw~ \$0-leftout;
#X obj 1250 812 throw~ \$0-rightout;
#X obj 1780 601 throw~ \$0-rightout;
#X obj 1496 721 catch~ \$0-leftout;
#X obj 1618 719 catch~ \$0-rightout;
#X obj 1611 576 vsl 15 128 0 360 0 0 empty empty empty 0 -9 0 10 -262144
-1 -1 6350 1;
#X obj 1647 802 outlet~;
#X obj 1707 801 outlet~;
#X text 1634 628 Space;
#X obj 1527 13 inlet;
#X obj 714 136 wavesynth1~;
#X obj 232 529 poly 8 1;
#X obj 235 488 unpack f f;
#X obj 956 136 wavesynth2~;
#X obj 714 348 wavesynth3~;
#X obj 956 348 wavesynth4~;
#X msg 200 657 \$1 \$2;
#X obj 235 607 pack f f f;
#X msg 323 677 \$1 \$3;
#X msg 108 662 vis 3 1;
#X floatatom 176 555 5 0 0 0 - - -;
#X msg 92 707 vis 5 1;
#X obj 196 724 clone -s 1 wavesyntharray~ 8;
#X obj 196 811 *~ 0.125;
#X obj 235 446 inlet;
#X obj 1426 627 bng 15 250 50 0 empty empty empty 17 7 0 10 -262144
-1 -1;
#X text 1448 627 Grand Reset;
#X obj 1461 832 loadbang;
#X msg 1466 859 180;
#X obj 277 551 / 127;
#X msg 338 308 sinesum 8192 2.30473e+012 32847 2.39842e+006 7.24394e+013
243828 33;
#X msg 25 281 0 4063 8192 0.157 35;
#X msg 330 281 0 0 8192 1 505;
#X obj 1269 73 catch~ \$0-drums;
#X obj 1461 86 route 48 49 50 51;
#X obj 1487 62 spigot;
#X obj 1487 36 unpack f f;
#X connect 0 0 33 5;
#X connect 1 0 36 5;
#X connect 2 0 33 0;
#X connect 2 1 33 1;
#X connect 2 2 33 2;
#X connect 2 3 33 3;
#X connect 2 4 33 4;
#X connect 3 0 12 0;
#X connect 3 0 0 0;
#X connect 4 0 36 0;
#X connect 4 1 36 1;
#X connect 4 2 36 2;
#X connect 4 3 36 3;
#X connect 4 4 36 4;
#X connect 5 0 11 0;
#X connect 5 0 1 0;
#X connect 6 0 37 0;
#X connect 6 1 37 1;
#X connect 6 2 37 2;
#X connect 6 3 37 3;
#X connect 6 4 37 4;
#X connect 7 0 54 0;
#X connect 7 0 10 0;
#X connect 8 0 38 0;
#X connect 8 1 38 1;
#X connect 8 2 38 2;
#X connect 8 3 38 3;
#X connect 8 4 38 4;
#X connect 9 0 55 0;
#X connect 9 0 53 0;
#X connect 10 0 37 5;
#X connect 11 0 4 0;
#X connect 12 0 2 0;
#X connect 13 0 14 0;
#X connect 13 1 15 0;
#X connect 13 2 16 0;
#X connect 13 3 17 0;
#X connect 18 0 22 0;
#X connect 18 1 24 0;
#X connect 19 0 23 0;
#X connect 19 1 25 0;
#X connect 20 0 19 0;
#X connect 21 0 29 0;
#X connect 21 1 30 0;
#X connect 26 0 21 0;
#X connect 27 0 21 1;
#X connect 28 0 21 2;
#X connect 32 0 59 0;
#X connect 34 0 40 0;
#X connect 34 0 43 0;
#X connect 34 1 40 1;
#X connect 34 2 52 0;
#X connect 35 0 34 0;
#X connect 35 1 34 1;
#X connect 39 0 45 0;
#X connect 40 0 39 0;
#X connect 40 0 41 0;
#X connect 41 0 45 1;
#X connect 42 0 45 0;
#X connect 44 0 45 0;
#X connect 45 0 46 0;
#X connect 46 0 18 0;
#X connect 47 0 35 0;
#X connect 48 0 53 0;
#X connect 48 0 54 0;
#X connect 48 0 55 0;
#X connect 48 0 10 0;
#X connect 48 0 12 0;
#X connect 48 0 11 0;
#X connect 48 0 1 0;
#X connect 48 0 0 0;
#X connect 48 0 51 0;
#X connect 50 0 51 0;
#X connect 51 0 28 0;
#X connect 52 0 40 2;
#X connect 53 0 38 5;
#X connect 54 0 6 0;
#X connect 55 0 8 0;
#X connect 56 0 19 0;
#X connect 57 0 13 2;
#X connect 57 1 13 3;
#X connect 57 2 13 4;
#X connect 57 3 13 5;
#X connect 58 0 57 0;
#X connect 59 0 58 0;
#X connect 59 1 58 1;
#X coords 0 -1 1 1 1200 690 1 700 115;
