#N canvas 953 0 958 1028 10;
#X floatatom 99 179 5 0 0 0 - - -;
#X obj 99 199 / 360;
#X obj 99 220 * 6.28;
#X obj 99 241 sin;
#X floatatom 99 262 5 0 0 0 - - -;
#X obj 153 241 cos;
#X floatatom 153 262 5 0 0 0 - - -;
#X obj 145 133 loadbang;
#X obj 145 154 f 1;
#X obj 145 175 atan;
#X obj 145 196 * 8;
#X obj 338 111 * -0.5;
#X obj 338 132 + 0.5;
#X floatatom 338 153 5 0 0 0 - - -;
#X obj 411 111 * -0.5;
#X obj 411 132 + 0.5;
#X floatatom 411 153 5 0 0 0 - - -;
#X obj 321 237 *~;
#X obj 337 259 +~;
#X obj 352 237 *~;
#X obj 401 237 *~;
#X obj 417 259 +~;
#X obj 432 237 *~;
#X obj 180 40 inlet~;
#X obj 268 156 lop~ 1800;
#X obj 268 177 lop~ 1800;
#X obj 277 293 delwrite~ \$0-left 100;
#X obj 416 292 delwrite~ \$0-right 100;
#X obj 324 345 * 1;
#X obj 324 366 + 3;
#X floatatom 324 387 5 0 0 0 - - -;
#X obj 324 407 pack f 20;
#X obj 324 428 vline~;
#X obj 324 449 delread4~ \$0-left;
#X obj 443 345 * 1;
#X obj 443 366 + 3;
#X floatatom 443 387 5 0 0 0 - - -;
#X obj 443 407 pack f 20;
#X obj 443 428 vline~;
#X obj 443 449 delread4~ \$0-right;
#X obj 465 34 inlet~;
#X obj 456 156 lop~ 1800;
#X obj 456 177 lop~ 1800;
#X obj 323 503 outlet~;
#X obj 443 504 outlet~;
#X obj 40 64 metro 2000;
#X obj 40 85 t b b;
#X obj 40 106 pack 360 2000;
#X obj 40 127 line;
#X obj 44 34 tgl 15 0 empty empty empty 17 7 0 10 -262144 -1 -1 0 1
;
#X msg 80 127 0 0;
#X obj 123 371 vsl 15 128 -1 1 0 0 empty empty empty 0 -9 0 10 -262144
-1 -1 5576 1;
#X obj 69 423 hsl 128 15 -1 1 0 0 empty empty empty -2 -8 0 10 -262144
-1 -1 12653 1;
#X floatatom 108 36 5 0 0 0 - - -;
#X floatatom 534 105 5 0 0 0 - - -;
#X floatatom 598 290 5 0 0 0 - - -;
#X obj 603 41 inlet;
#X connect 0 0 1 0;
#X connect 1 0 2 0;
#X connect 2 0 5 0;
#X connect 2 0 3 0;
#X connect 3 0 4 0;
#X connect 4 0 52 0;
#X connect 5 0 6 0;
#X connect 6 0 51 0;
#X connect 6 0 11 0;
#X connect 6 0 14 0;
#X connect 7 0 8 0;
#X connect 8 0 9 0;
#X connect 9 0 10 0;
#X connect 10 0 2 1;
#X connect 11 0 12 0;
#X connect 12 0 13 0;
#X connect 13 0 17 1;
#X connect 13 0 20 1;
#X connect 13 0 28 0;
#X connect 14 0 15 0;
#X connect 15 0 16 0;
#X connect 16 0 19 1;
#X connect 16 0 22 1;
#X connect 16 0 34 0;
#X connect 17 0 18 0;
#X connect 18 0 26 0;
#X connect 19 0 18 1;
#X connect 20 0 21 0;
#X connect 21 0 27 0;
#X connect 22 0 21 1;
#X connect 23 0 17 0;
#X connect 23 0 24 0;
#X connect 24 0 25 0;
#X connect 25 0 19 0;
#X connect 28 0 29 0;
#X connect 29 0 30 0;
#X connect 30 0 31 0;
#X connect 31 0 32 0;
#X connect 32 0 33 0;
#X connect 33 0 43 0;
#X connect 34 0 35 0;
#X connect 35 0 36 0;
#X connect 36 0 37 0;
#X connect 37 0 38 0;
#X connect 38 0 39 0;
#X connect 39 0 44 0;
#X connect 40 0 41 0;
#X connect 40 0 22 0;
#X connect 41 0 42 0;
#X connect 42 0 20 0;
#X connect 45 0 46 0;
#X connect 46 0 47 0;
#X connect 46 1 50 0;
#X connect 47 0 48 0;
#X connect 48 0 0 0;
#X connect 49 0 45 0;
#X connect 50 0 48 0;
#X connect 53 0 45 1;
#X connect 53 0 47 1;
#X connect 54 0 41 1;
#X connect 54 0 25 1;
#X connect 54 0 24 1;
#X connect 54 0 42 1;
#X connect 55 0 34 1;
#X connect 55 0 28 1;
#X connect 56 0 0 0;
