#N canvas -8 -8 1920 1037 10;
#X obj 754 298 wavesynth1~;
#X obj 1065 300 wavesynth2~;
#X obj 756 562 wavesynth3~;
#X obj 1069 556 wavesynth4~;
#X obj 822 143 inlet;
#X obj 758 522 throw~ \$0-wsaout;
#X obj 751 788 throw~ \$0-wsaout;
#X obj 1055 521 throw~ \$0-wsaout;
#X obj 1073 784 throw~ \$0-wsaout;
#X obj 1537 519 outlet~;
#X obj 1537 426 *~;
#X obj 1559 154 inlet;
#X floatatom 736 202 5 0 0 0 - - -;
#X floatatom 1426 191 5 0 0 0 - - -;
#X obj 1078 64 notein;
#X obj 1536 360 catch~ \$0-wsaout;
#X obj 1573 296 vline~;
#X obj 1665 462 snapshot~;
#X floatatom 1665 483 5 0 0 0 - - -;
#X obj 1664 433 bng 15 250 50 0 empty empty empty 17 7 0 10 -262144
-1 -1;
#X obj 1575 224 pack f 100;
#X connect 0 0 5 0;
#X connect 1 0 7 0;
#X connect 2 0 6 0;
#X connect 3 0 8 0;
#X connect 4 0 0 0;
#X connect 4 0 3 0;
#X connect 4 0 2 0;
#X connect 4 0 1 0;
#X connect 4 0 12 0;
#X connect 10 0 9 0;
#X connect 10 0 17 0;
#X connect 11 0 13 0;
#X connect 11 0 20 0;
#X connect 15 0 10 0;
#X connect 16 0 10 1;
#X connect 17 0 18 0;
#X connect 19 0 17 0;
#X connect 20 0 16 0;
