#N canvas 953 0 958 1028 10;
#N canvas 0 50 450 250 (subpatch) 0;
#X array wavetable4 8195 float 2;
#X coords 0 1 8195 -1 200 140 2 0 0;
#X restore 44 33 graph;
#X obj 136 525 phasor~ 100;
#X obj 135 586 *~ 8192;
#X obj 210 839 outlet~;
#X obj 211 691 *~;
#X obj 169 478 +~;
#X obj 300 437 osc~ 0;
#X obj 300 416 lop~ 10;
#X msg 447 195 normalize 1;
#X obj 175 564 clip 0 8192;
#X obj 111 190 hsl 128 15 0 8192 0 0 empty empty empty -2 -8 0 10 -262144
-1 -1 0 1;
#X obj 110 219 hsl 128 15 0 8192 0 0 empty empty empty -2 -8 0 10 -262144
-1 -1 12700 1;
#X obj 237 470 *~;
#X obj 298 461 *~ 0.5;
#X obj 297 480 +~ 0.5;
#X floatatom 51 191 5 0 0 0 - - -;
#X obj 211 405 vline~;
#X obj 211 381 pack f 300;
#X obj 215 429 clip~ 0 1;
#X obj 254 38 vsl 15 128 0 1 0 0 empty empty empty 0 -9 0 10 -262144
-1 -1 12400 1;
#X floatatom 51 219 5 0 0 0 - - -;
#X text 246 169 Level;
#X text 45 175 Carrier;
#X text 50 205 Mod;
#X text 106 204 Last Index;
#X text 107 173 First Index;
#X msg 528 131 sinesum 8192 1 3 5 7 9 11 13 15 17 19 21 23;
#X obj 152 444 -;
#X obj 149 414 t b f;
#X obj 255 207 bng 15 250 50 0 empty empty empty 17 7 0 10 -262144
-1 -1;
#X text 245 222 reset;
#X floatatom 334 239 5 0 0 0 - - -;
#X floatatom 333 279 5 0 0 0 - - -;
#X floatatom 329 169 5 0 0 0 - - -;
#X obj 2 7 inlet;
#X obj 50 -1 inlet;
#X obj 106 7 inlet;
#X obj 155 8 inlet;
#X obj 220 10 inlet;
#X obj 382 10 inlet;
#X obj 302 361 receive w4-in5;
#X obj 202 343 receive w4-in4;
#X obj 109 381 receive w4-in3;
#X obj 100 355 receive w4-in2;
#X obj 182 641 tabread4~ wavetable4;
#X obj 119 269 send w4-in2;
#X obj 115 301 send w4-in5;
#X obj 207 290 send w4-in3;
#X obj 28 303 send w4-in4;
#X obj 383 32 send w4-in6;
#X obj 418 81 receive w4-in6;
#X obj 417 296 send wavetable4;
#X obj 0 339 receive \$0w4-in1;
#X obj 24 266 send \$0w4-in1;
#X obj 447 166 t b;
#X connect 1 0 2 0;
#X connect 2 0 44 0;
#X connect 4 0 3 0;
#X connect 5 0 1 0;
#X connect 6 0 13 0;
#X connect 7 0 6 0;
#X connect 8 0 51 0;
#X connect 9 0 2 1;
#X connect 10 0 31 0;
#X connect 10 0 45 0;
#X connect 11 0 32 0;
#X connect 11 0 47 0;
#X connect 12 0 5 1;
#X connect 13 0 14 0;
#X connect 14 0 12 1;
#X connect 15 0 53 0;
#X connect 16 0 18 0;
#X connect 17 0 16 0;
#X connect 18 0 4 1;
#X connect 19 0 33 0;
#X connect 19 0 48 0;
#X connect 20 0 46 0;
#X connect 26 0 51 0;
#X connect 26 0 54 0;
#X connect 27 0 9 0;
#X connect 28 0 27 0;
#X connect 28 1 27 1;
#X connect 29 0 26 0;
#X connect 34 0 15 0;
#X connect 35 0 10 0;
#X connect 36 0 11 0;
#X connect 37 0 19 0;
#X connect 38 0 20 0;
#X connect 39 0 49 0;
#X connect 40 0 7 0;
#X connect 41 0 17 0;
#X connect 41 0 33 0;
#X connect 42 0 27 0;
#X connect 42 0 32 0;
#X connect 43 0 28 0;
#X connect 43 0 31 0;
#X connect 43 0 44 1;
#X connect 44 0 4 0;
#X connect 50 0 51 0;
#X connect 50 0 54 0;
#X connect 52 0 12 0;
#X connect 52 0 5 0;
#X connect 54 0 8 0;
#X coords 0 -1 1 1 240 210 1 40 33;
